<svg id="visual" viewBox="0 0 1920 1080" width="1920" height="1080" xmlns="http://www.w3.org/2000/svg" xmlns:xlink="http://www.w3.org/1999/xlink" version="1.1"><rect x="0" y="0" width="1920" height="1080" fill="#038373"></rect><defs><linearGradient id="grad1_0" x1="43.8%" y1="100%" x2="100%" y2="0%"><stop offset="14.444444444444446%" stop-color="#038373" stop-opacity="1"></stop><stop offset="85.55555555555554%" stop-color="#038373" stop-opacity="1"></stop></linearGradient></defs><defs><linearGradient id="grad2_0" x1="0%" y1="100%" x2="56.3%" y2="0%"><stop offset="14.444444444444446%" stop-color="#038373" stop-opacity="1"></stop><stop offset="85.55555555555554%" stop-color="#038373" stop-opacity="1"></stop></linearGradient></defs><g transform="translate(1920, 1080)"><path d="M-594 0C-597.5 -56.9 -601 -113.8 -568 -152.2C-535 -190.5 -465.5 -210.4 -439.9 -254C-414.4 -297.6 -432.7 -365.1 -416.5 -416.5C-400.3 -467.8 -349.6 -503.1 -297 -514.4C-244.4 -525.8 -189.8 -513.3 -140 -522.6C-90.2 -531.9 -45.1 -562.9 0 -594L0 0Z" fill="#00CC8E"></path></g><g transform="translate(0, 0)"><path d="M594 0C543 41.4 492.1 82.8 474.3 127.1C456.5 171.3 471.8 218.5 472 272.5C472.2 326.5 457.1 387.5 420 420C382.9 452.5 323.7 456.5 277 479.8C230.3 503.1 196.3 545.7 152.2 568C108.1 590.2 54.1 592.1 0 594L0 0Z" fill="#00CC8E"></path></g></svg>