<svg id="visual" viewBox="0 0 1920 1080" width="1920" height="1080" xmlns="http://www.w3.org/2000/svg" xmlns:xlink="http://www.w3.org/1999/xlink" version="1.1"><rect width="1920" height="1080" fill="#038373"></rect><g><g transform="translate(1417 267)"><path d="M0 -123.1L106.6 -61.5L106.6 61.5L0 123.1L-106.6 61.5L-106.6 -61.5Z" fill="#00CC8E"></path></g><g transform="translate(853 653)"><path d="M0 -68L58.9 -34L58.9 34L0 68L-58.9 34L-58.9 -34Z" fill="#00CC8E"></path></g><g transform="translate(487 472)"><path d="M0 -72L62.4 -36L62.4 36L0 72L-62.4 36L-62.4 -36Z" fill="#00CC8E"></path></g><g transform="translate(1592 586)"><path d="M0 -107L92.7 -53.5L92.7 53.5L0 107L-92.7 53.5L-92.7 -53.5Z" fill="#00CC8E"></path></g><g transform="translate(500 825)"><path d="M0 -67L58 -33.5L58 33.5L0 67L-58 33.5L-58 -33.5Z" fill="#00CC8E"></path></g><g transform="translate(1643 978)"><path d="M0 -115L99.6 -57.5L99.6 57.5L0 115L-99.6 57.5L-99.6 -57.5Z" fill="#00CC8E"></path></g><g transform="translate(9 652)"><path d="M0 -100L86.6 -50L86.6 50L0 100L-86.6 50L-86.6 -50Z" fill="#00CC8E"></path></g></g></svg>