<svg id="visual" viewBox="0 0 1920 1080" width="1920" height="1080" xmlns="http://www.w3.org/2000/svg" xmlns:xlink="http://www.w3.org/1999/xlink" version="1.1"><path d="M0 163L175 131L349 87L524 131L698 120L873 120L1047 120L1222 109L1396 87L1571 131L1745 174L1920 141L1920 0L1745 0L1571 0L1396 0L1222 0L1047 0L873 0L698 0L524 0L349 0L175 0L0 0Z" fill="#00cc8e"></path><path d="M0 357L175 293L349 239L524 314L698 282L873 314L1047 217L1222 401L1396 379L1571 325L1745 282L1920 260L1920 139L1745 172L1571 129L1396 85L1222 107L1047 118L873 118L698 118L524 129L349 85L175 129L0 161Z" fill="#00b98a"></path><path d="M0 638L175 768L349 606L524 681L698 638L873 703L1047 444L1222 735L1396 584L1571 649L1745 519L1920 671L1920 258L1745 280L1571 323L1396 377L1222 399L1047 215L873 312L698 280L524 312L349 237L175 291L0 355Z" fill="#00a784"></path><path d="M0 800L175 908L349 757L524 779L698 822L873 833L1047 627L1222 854L1396 681L1571 800L1745 692L1920 833L1920 669L1745 517L1571 647L1396 582L1222 733L1047 442L873 701L698 636L524 679L349 604L175 766L0 636Z" fill="#00957c"></path><path d="M0 1081L175 1081L349 1081L524 1081L698 1081L873 1081L1047 1081L1222 1081L1396 1081L1571 1081L1745 1081L1920 1081L1920 831L1745 690L1571 798L1396 679L1222 852L1047 625L873 831L698 820L524 777L349 755L175 906L0 798Z" fill="#038373"></path></svg>